<svg xmlns="http://www.w3.org/2000/svg" width="1200" height="800"><defs><linearGradient id="bg" x1="0" x2="0" y1="0" y2="1"><stop offset="0%" stop-color="#f5f5f7"/><stop offset="100%" stop-color="#e8e8ed"/></linearGradient></defs><rect width="1200" height="800" fill="url(#bg)"/><rect width="1200" height="52" x="0" y="0" fill="#fff" opacity=".9"/><text x="24" y="34" fill="#1d1d1f" font-family="-apple-system" font-size="17" font-weight="600">🎙️ MiMo Voice</text><rect width="560" height="360" x="24" y="72" fill="#fff" filter="url(#shadow)" rx="18"/><text x="44" y="105" fill="#1d1d1f" font-family="-apple-system" font-size="15" font-weight="600">语音录制</text><rect width="520" height="100" x="44" y="120" fill="#fbfbfd" stroke="#d2d2d7" rx="12"/><path fill="none" stroke="#0071e3" stroke-width="2" d="M60 170 Q150 140 250 170 Q350 200 450 170 Q500 155 540 170"/><circle cx="300" cy="300" r="36" fill="#0071e3"/><circle cx="300" cy="300" r="12" fill="#fff"/><text x="270" y="360" fill="#1d1d1f" font-family="-apple-system" font-size="20" font-weight="600">00:00</text><circle cx="340" cy="355" r="4" fill="#aeaeb2"/><text x="350" y="360" fill="#86868b" font-family="-apple-system" font-size="13">就绪</text><rect width="280" height="180" x="608" y="72" fill="#fff" rx="18"/><text x="628" y="105" fill="#1d1d1f" font-family="-apple-system" font-size="15" font-weight="600">API 配置</text><rect width="240" height="36" x="628" y="120" fill="#fbfbfd" stroke="#d2d2d7" rx="10"/><text x="640" y="143" fill="#aeaeb2" font-family="monospace" font-size="13">tp-xxxxx</text><rect width="280" height="164" x="608" y="268" fill="#fff" rx="18"/><text x="628" y="301" fill="#1d1d1f" font-family="-apple-system" font-size="15" font-weight="600">设置</text><text x="628" y="335" fill="#1d1d1f" font-family="-apple-system" font-size="14">流式输出</text><rect width="44" height="26" x="840" y="320" fill="#e5e5ea" rx="13"/><circle cx="860" cy="333" r="10" fill="#fff"/><text x="628" y="375" fill="#1d1d1f" font-family="-apple-system" font-size="14">自动复制</text><rect width="44" height="26" x="840" y="360" fill="#e5e5ea" rx="13"/><circle cx="860" cy="373" r="10" fill="#fff"/><rect width="560" height="140" x="24" y="448" fill="#fff" rx="18"/><text x="44" y="481" fill="#1d1d1f" font-family="-apple-system" font-size="15" font-weight="600">文件上传</text><rect width="520" height="72" x="44" y="496" fill="none" stroke="#d2d2d7" stroke-dasharray="6 4" rx="12"/><text x="250" y="538" fill="#86868b" font-family="-apple-system" font-size="14">📤 拖放文件或点击选择</text><rect width="280" height="140" x="608" y="448" fill="#fff" rx="18"/><text x="628" y="481" fill="#1d1d1f" font-family="-apple-system" font-size="15" font-weight="600">历史</text><text x="640" y="520" fill="#aeaeb2" font-family="-apple-system" font-size="13">暂无历史记录</text><rect width="864" height="180" x="24" y="604" fill="#fff" rx="18"/><text x="44" y="637" fill="#1d1d1f" font-family="-apple-system" font-size="15" font-weight="600">识别结果</text><rect width="824" height="112" x="44" y="652" fill="#fbfbfd" stroke="#d2d2d7" rx="12"/><text x="380" y="714" fill="#aeaeb2" font-family="-apple-system" font-size="14">🎧 录制或上传音频后显示结果</text></svg>